<svg width="375" height="44" viewBox="0 0 375 44" fill="none" xmlns="http://www.w3.org/2000/svg">
<path d="M34.9886 16.2045C35.5076 16.2083 36.0189 16.303 36.5227 16.4886C37.0265 16.6742 37.4811 16.9773 37.8864 17.3977C38.2955 17.8182 38.6212 18.3864 38.8636 19.1023C39.1098 19.8144 39.2348 20.7008 39.2386 21.7614C39.2386 22.7803 39.1364 23.6875 38.9318 24.483C38.7273 25.2746 38.4337 25.9432 38.0511 26.4886C37.6723 27.0341 37.2121 27.4489 36.6705 27.733C36.1288 28.017 35.5189 28.1591 34.8409 28.1591C34.1477 28.1591 33.5322 28.0227 32.9943 27.75C32.4564 27.4773 32.0189 27.1004 31.6818 26.6193C31.3447 26.1345 31.1345 25.5777 31.0511 24.9489H32.7841C32.8977 25.4489 33.1288 25.8542 33.4773 26.1648C33.8295 26.4716 34.2841 26.625 34.8409 26.625C35.6932 26.625 36.358 26.2538 36.8352 25.5114C37.3125 24.7652 37.553 23.7235 37.5568 22.3864H37.4659C37.2689 22.7121 37.0227 22.9924 36.7273 23.2273C36.4356 23.4621 36.108 23.6439 35.7443 23.7727C35.3807 23.9015 34.9924 23.9659 34.5795 23.9659C33.9091 23.9659 33.2992 23.8011 32.75 23.4716C32.2008 23.142 31.7633 22.6894 31.4375 22.1136C31.1117 21.5379 30.9489 20.8807 30.9489 20.142C30.9489 19.4072 31.1155 18.7405 31.4489 18.142C31.786 17.5436 32.2557 17.0701 32.858 16.7216C33.464 16.3693 34.1742 16.197 34.9886 16.2045ZM34.9943 17.6818C34.5511 17.6818 34.1515 17.7917 33.7955 18.0114C33.4432 18.2273 33.1648 18.5208 32.9602 18.892C32.7557 19.2595 32.6534 19.6686 32.6534 20.1193C32.6534 20.5701 32.7519 20.9792 32.9489 21.3466C33.1496 21.7102 33.4223 22 33.767 22.2159C34.1155 22.428 34.5133 22.5341 34.9602 22.5341C35.2936 22.5341 35.6042 22.4697 35.892 22.3409C36.1799 22.2121 36.4318 22.0341 36.6477 21.8068C36.8636 21.5758 37.0322 21.3144 37.1534 21.0227C37.2746 20.7311 37.3352 20.4242 37.3352 20.1023C37.3352 19.6742 37.233 19.2765 37.0284 18.9091C36.8277 18.5417 36.5511 18.2462 36.1989 18.0227C35.8466 17.7955 35.4451 17.6818 34.9943 17.6818ZM42.4332 26.5568C42.1226 26.5568 41.8556 26.447 41.6321 26.2273C41.4086 26.0038 41.2969 25.7348 41.2969 25.4205C41.2969 25.1098 41.4086 24.8447 41.6321 24.625C41.8556 24.4015 42.1226 24.2898 42.4332 24.2898C42.7438 24.2898 43.0109 24.4015 43.2344 24.625C43.4579 24.8447 43.5696 25.1098 43.5696 25.4205C43.5696 25.6288 43.5166 25.8201 43.4105 25.9943C43.3082 26.1648 43.1719 26.3011 43.0014 26.4034C42.831 26.5057 42.6416 26.5568 42.4332 26.5568ZM42.4332 20.7273C42.1226 20.7273 41.8556 20.6174 41.6321 20.3977C41.4086 20.1742 41.2969 19.9053 41.2969 19.5909C41.2969 19.2803 41.4086 19.0152 41.6321 18.7955C41.8556 18.572 42.1226 18.4602 42.4332 18.4602C42.7438 18.4602 43.0109 18.572 43.2344 18.7955C43.4579 19.0152 43.5696 19.2803 43.5696 19.5909C43.5696 19.7992 43.5166 19.9905 43.4105 20.1648C43.3082 20.3352 43.1719 20.4716 43.0014 20.5739C42.831 20.6761 42.6416 20.7273 42.4332 20.7273ZM45.5781 25.7273V24.3068L50.6065 16.3636H51.7259V18.4545H51.0156L47.419 24.1477V24.2386H54.3111V25.7273H45.5781ZM51.0952 28V25.2955L51.1065 24.6477V16.3636H52.7713V28H51.0952ZM60.5497 16.3636V28H58.7884V18.125H58.7202L55.9361 19.9432V18.2614L58.8395 16.3636H60.5497Z" fill="#021433"/>
<path d="M285 22.5C285.552 22.5 286 22.9477 286 23.5V25.5C286 26.0523 285.552 26.5 285 26.5H284C283.448 26.5 283 26.0523 283 25.5V23.5C283 22.9477 283.448 22.5 284 22.5H285ZM290 20.5C290.552 20.5 291 20.9477 291 21.5V25.5C291 26.0523 290.552 26.5 290 26.5H289C288.448 26.5 288 26.0523 288 25.5V21.5C288 20.9477 288.448 20.5 289 20.5H290ZM295 18.5C295.552 18.5 296 18.9298 296 19.46V25.54C296 26.0702 295.552 26.5 295 26.5H294C293.448 26.4999 293 26.0702 293 25.54V19.46C293 18.9298 293.448 18.5001 294 18.5H295ZM300 16.5C300.552 16.5 301 16.9197 301 17.4375V25.5625C301 26.0803 300.552 26.5 300 26.5H299C298.448 26.5 298 26.0803 298 25.5625V17.4375C298 16.9197 298.448 16.5 299 16.5H300Z" fill="#021433"/>
<path d="M311.427 24.4179C312.702 23.339 314.571 23.339 315.847 24.4179C315.911 24.4759 315.947 24.5581 315.949 24.6445C315.951 24.7308 315.917 24.8144 315.855 24.8749L313.858 26.8906C313.8 26.9497 313.72 26.9823 313.637 26.9824C313.554 26.9824 313.474 26.9496 313.415 26.8906L311.417 24.8749C311.355 24.8143 311.321 24.73 311.323 24.6435C311.325 24.5573 311.363 24.4758 311.427 24.4179ZM308.762 21.7284C311.51 19.1724 315.766 19.1724 318.514 21.7284C318.576 21.7883 318.611 21.8708 318.612 21.957C318.613 22.0431 318.579 22.1263 318.519 22.1874L317.364 23.3544C317.245 23.4735 317.053 23.4761 316.931 23.3603C316.028 22.5431 314.854 22.0907 313.637 22.0908C312.42 22.0913 311.247 22.5436 310.345 23.3603C310.223 23.4761 310.03 23.4735 309.911 23.3544L308.757 22.1874C308.696 22.1264 308.662 22.0431 308.663 21.957C308.664 21.8708 308.7 21.7883 308.762 21.7284ZM306.097 19.0468C310.312 15.0076 316.962 15.0074 321.177 19.0468C321.238 19.1067 321.272 19.1889 321.272 19.2743C321.273 19.3599 321.239 19.4421 321.179 19.5029L320.022 20.6699C319.903 20.7893 319.711 20.7906 319.59 20.6728C317.984 19.1461 315.853 18.295 313.637 18.2949C311.421 18.2948 309.289 19.1459 307.683 20.6728C307.562 20.7908 307.369 20.7895 307.25 20.6699L306.094 19.5029C306.033 19.4421 305.999 19.3599 306 19.2743C306.001 19.1888 306.036 19.1067 306.097 19.0468Z" fill="#021433"/>
<path opacity="0.2" d="M328.939 15.5H348.605C349.802 15.5 350.772 16.4704 350.772 17.667V25.333C350.772 26.5296 349.802 27.5 348.605 27.5H328.939C327.743 27.5 326.772 26.5296 326.772 25.333V17.667L326.783 17.4453C326.894 16.3527 327.817 15.5 328.939 15.5Z" stroke="#021433"/>
<path opacity="0.2" d="M351.922 19V23C352.727 22.6612 353.25 21.8731 353.25 21C353.25 20.1269 352.727 19.3388 351.922 19Z" fill="#021433"/>
<path d="M328.572 18.6663C328.572 17.93 329.169 17.333 329.906 17.333H347.439C348.175 17.333 348.772 17.93 348.772 18.6663V24.3297C348.772 25.0661 348.175 25.663 347.439 25.663H329.906C329.169 25.663 328.572 25.0661 328.572 24.3297V18.6663Z" fill="#021433"/>
</svg>
