<svg width="343" height="32" viewBox="0 0 343 32" fill="none" xmlns="http://www.w3.org/2000/svg">
<path d="M152.142 0.843087L148.985 0L146.325 9.89565L143.923 0.961791L140.766 1.80488L143.361 11.4573L136.897 5.01518L134.585 7.31854L141.676 14.3848L132.846 12.0269L132 15.1733L141.648 17.7496C141.537 17.2748 141.479 16.7801 141.479 16.2717C141.479 12.6737 144.406 9.75685 148.016 9.75685C151.626 9.75685 154.553 12.6737 154.553 16.2717C154.553 16.7768 154.495 17.2685 154.386 17.7405L163.154 20.0818L164 16.9354L154.314 14.3489L163.144 11.9908L162.298 8.84437L152.613 11.4308L159.077 4.98873L156.766 2.68538L149.774 9.65357L152.142 0.843087Z" fill="#367AFF"/>
<path d="M154.378 17.7771C154.107 18.9176 153.535 19.9421 152.751 20.763L159.103 27.0935L161.415 24.7901L154.378 17.7771Z" fill="#367AFF"/>
<path d="M152.687 20.8292C151.894 21.637 150.891 22.2398 149.766 22.5504L152.077 31.1472L155.235 30.3041L152.687 20.8292Z" fill="#367AFF"/>
<path d="M149.648 22.5818C149.126 22.7155 148.579 22.7866 148.016 22.7866C147.412 22.7866 146.827 22.705 146.272 22.5522L143.959 31.1569L147.116 31.9999L149.648 22.5818Z" fill="#367AFF"/>
<path d="M146.161 22.5206C145.053 22.1945 144.068 21.584 143.291 20.7739L136.923 27.1199L139.234 29.4233L146.161 22.5206Z" fill="#367AFF"/>
<path d="M143.238 20.7178C142.474 19.9026 141.917 18.8917 141.652 17.7688L132.856 20.1178L133.702 23.2642L143.238 20.7178Z" fill="#367AFF"/>
<path d="M178.077 25V7.54545H181.239V14.9347H189.327V7.54545H192.497V25H189.327V17.5852H181.239V25H178.077ZM200.891 25H194.976V7.54545H201.01C202.743 7.54545 204.232 7.89489 205.476 8.59375C206.726 9.28693 207.686 10.2841 208.357 11.5852C209.027 12.8864 209.362 14.4432 209.362 16.2557C209.362 18.0739 209.024 19.6364 208.348 20.9432C207.678 22.25 206.709 23.2528 205.442 23.9517C204.181 24.6506 202.663 25 200.891 25ZM198.138 22.2642H200.737C201.953 22.2642 202.967 22.0426 203.78 21.5994C204.592 21.1506 205.203 20.483 205.612 19.5966C206.021 18.7045 206.226 17.5909 206.226 16.2557C206.226 14.9205 206.021 13.8125 205.612 12.9318C205.203 12.0455 204.598 11.3835 203.797 10.946C203.002 10.5028 202.013 10.2812 200.831 10.2812H198.138V22.2642Z" fill="#232323"/>
</svg>
